<?xml version="1.0" encoding="UTF-8"?>
<!DOCTYPE svg PUBLIC "-//W3C//DTD SVG 1.1//EN" "http://www.w3.org/Graphics/SVG/1.1/DTD/svg11.dtd">
<svg xmlns="http://www.w3.org/2000/svg" version="1.1" width="393px" height="125px" style="shape-rendering:geometricPrecision; text-rendering:geometricPrecision; image-rendering:optimizeQuality; fill-rule:evenodd; clip-rule:evenodd" xmlns:xlink="http://www.w3.org/1999/xlink">
<g><path style="opacity:1" fill="#0f0f11" d="M -0.5,-0.5 C 130.5,-0.5 261.5,-0.5 392.5,-0.5C 392.5,41.1667 392.5,82.8333 392.5,124.5C 261.5,124.5 130.5,124.5 -0.5,124.5C -0.5,82.8333 -0.5,41.1667 -0.5,-0.5 Z"/></g>
<g><path style="opacity:1" fill="#f3f3f1" d="M 1.5,17.5 C 22.1033,27.8894 42.27,39.2227 62,51.5C 71.4164,45.5412 80.9164,39.7079 90.5,34C 99.8745,30.3065 108.541,25.3065 116.5,19C 121.397,16.5644 123.564,18.0644 123,23.5C 108.928,39.9821 95.0949,56.6488 81.5,73.5C 86.5269,80.0268 91.3602,86.6934 96,93.5C 96.7599,97.2255 96.5932,100.892 95.5,104.5C 93.5787,105.641 91.5787,105.808 89.5,105C 80.4145,100.972 71.2479,97.1382 62,93.5C 52.7759,97.1954 43.6092,101.029 34.5,105C 32.4213,105.808 30.4213,105.641 28.5,104.5C 27.4001,100.558 27.2334,96.5575 28,92.5C 33.0251,86.3089 37.8584,79.9755 42.5,73.5C 31.8104,60.6447 21.3104,47.6447 11,34.5C 7.97289,30.8062 4.63956,27.4729 1,24.5C 0.296689,22.0709 0.463356,19.7375 1.5,17.5 Z"/></g>
<g><path style="opacity:1" fill="#fcc243" d="M 10.5,25.5 C 18.2174,30.37 25.5508,35.87 32.5,42C 40.7597,46.4696 48.7597,51.4696 56.5,57C 57.1667,57.6667 57.8333,57.6667 58.5,57C 59.0659,56.0053 59.7326,55.172 60.5,54.5C 60.5,56.1667 60.5,57.8333 60.5,59.5C 59.1984,58.1931 57.865,58.1931 56.5,59.5C 54.4469,62.0366 52.4469,64.2033 50.5,66C 38.4758,54.9749 26.8091,43.6416 15.5,32C 13.8542,30.1795 11.8542,29.0128 9.5,28.5C 7.70587,26.2034 5.70587,24.0367 3.5,22C 6.02656,22.5965 8.35989,23.7631 10.5,25.5 Z"/></g>
<g><path style="opacity:1" fill="#fce248" d="M 10.5,25.5 C 27.4698,34.6513 44.1365,44.318 60.5,54.5C 59.7326,55.172 59.0659,56.0053 58.5,57C 57.8333,57.6667 57.1667,57.6667 56.5,57C 48.7597,51.4696 40.7597,46.4696 32.5,42C 25.5508,35.87 18.2174,30.37 10.5,25.5 Z"/></g>
<g><path style="opacity:1" fill="#7a7a7a" d="M 199.5,43.5 C 210.988,42.5051 222.655,42.1717 234.5,42.5C 234.81,45.7131 234.477,48.7131 233.5,51.5C 233.5,48.8333 233.5,46.1667 233.5,43.5C 222.167,43.5 210.833,43.5 199.5,43.5 Z"/></g>
<g><path style="opacity:1" fill="#727272" d="M 271.5,51.5 C 271.5,48.8333 271.5,46.1667 271.5,43.5C 261.167,43.5 250.833,43.5 240.5,43.5C 240.5,46.1667 240.5,48.8333 240.5,51.5C 239.523,48.7131 239.19,45.7131 239.5,42.5C 250.5,42.5 261.5,42.5 272.5,42.5C 272.81,45.7131 272.477,48.7131 271.5,51.5 Z"/></g>
<g><path style="opacity:1" fill="#676767" d="M 378.5,43.5 C 373.193,42.9735 368.193,43.6402 363.5,45.5C 363.5,44.5 363.5,43.5 363.5,42.5C 368.695,42.1795 373.695,42.5128 378.5,43.5 Z"/></g>
<g><path style="opacity:1" fill="#fafafa" d="M 178.5,43.5 C 189.11,44.7785 194.444,50.7785 194.5,61.5C 194.601,70.8833 190.268,77.05 181.5,80C 175.175,80.4995 168.842,80.6662 162.5,80.5C 162.5,68.1667 162.5,55.8333 162.5,43.5C 167.833,43.5 173.167,43.5 178.5,43.5 Z"/></g>
<g><path style="opacity:1" fill="#fdfdfd" d="M 199.5,43.5 C 210.833,43.5 222.167,43.5 233.5,43.5C 233.5,46.1667 233.5,48.8333 233.5,51.5C 227.338,57.8296 221.338,64.3296 215.5,71C 221.825,71.4995 228.158,71.6662 234.5,71.5C 234.5,74.5 234.5,77.5 234.5,80.5C 222.833,80.5 211.167,80.5 199.5,80.5C 199.336,77.8127 199.503,75.146 200,72.5C 206.167,66.3333 212.333,60.1667 218.5,54C 212.175,53.5005 205.842,53.3338 199.5,53.5C 199.5,50.1667 199.5,46.8333 199.5,43.5 Z"/></g>
<g><path style="opacity:1" fill="#fdfdfd" d="M 271.5,51.5 C 268.167,51.5 264.833,51.5 261.5,51.5C 261.5,58.1667 261.5,64.8333 261.5,71.5C 264.625,72.4794 267.958,72.8128 271.5,72.5C 271.5,75.1667 271.5,77.8333 271.5,80.5C 261.167,80.5 250.833,80.5 240.5,80.5C 240.5,77.8333 240.5,75.1667 240.5,72.5C 244.167,72.5 247.833,72.5 251.5,72.5C 251.5,65.5 251.5,58.5 251.5,51.5C 247.833,51.5 244.167,51.5 240.5,51.5C 240.5,48.8333 240.5,46.1667 240.5,43.5C 250.833,43.5 261.167,43.5 271.5,43.5C 271.5,46.1667 271.5,48.8333 271.5,51.5 Z"/></g>
<g><path style="opacity:1" fill="#fcfcfc" d="M 277.5,43.5 C 288.167,43.5 298.833,43.5 309.5,43.5C 309.5,46.1667 309.5,48.8333 309.5,51.5C 305.833,51.5 302.167,51.5 298.5,51.5C 298.5,61.1667 298.5,70.8333 298.5,80.5C 295.167,80.5 291.833,80.5 288.5,80.5C 288.5,70.8333 288.5,61.1667 288.5,51.5C 284.833,51.5 281.167,51.5 277.5,51.5C 277.5,48.8333 277.5,46.1667 277.5,43.5 Z"/></g>
<g><path style="opacity:1" fill="#fafafa" d="M 331.5,43.5 C 344.46,45.417 347.96,52.417 342,64.5C 340.745,65.2106 339.579,66.044 338.5,67C 341.213,70.9242 343.547,75.0909 345.5,79.5C 341.833,80.8333 338.167,80.8333 334.5,79.5C 332.833,76.1667 331.167,72.8333 329.5,69.5C 328.311,68.5713 326.978,68.238 325.5,68.5C 325.5,72.5 325.5,76.5 325.5,80.5C 322.167,80.5 318.833,80.5 315.5,80.5C 315.5,68.1667 315.5,55.8333 315.5,43.5C 320.833,43.5 326.167,43.5 331.5,43.5 Z"/></g>
<g><path style="opacity:1" fill="#fafafa" d="M 378.5,43.5 C 382.867,55.6033 386.867,67.9366 390.5,80.5C 386.833,80.5 383.167,80.5 379.5,80.5C 379.326,78.139 378.993,75.8056 378.5,73.5C 374.154,73.3343 369.821,73.501 365.5,74C 364.76,75.7849 364.093,77.6183 363.5,79.5C 359.893,80.4892 356.226,80.8226 352.5,80.5C 356.369,68.8944 360.035,57.2278 363.5,45.5C 368.193,43.6402 373.193,42.9735 378.5,43.5 Z"/></g>
<g><path style="opacity:1" fill="#77bf40" d="M 109.5,27.5 C 109.833,27.5 110.167,27.5 110.5,27.5C 112.646,27.6964 112.812,28.6964 111,30.5C 98.297,42.7051 85.4637,54.7051 72.5,66.5C 70.8333,63.8333 69.1667,61.1667 67.5,58.5C 77.8961,49.4557 89.2295,41.6224 101.5,35C 104.713,32.95 107.379,30.45 109.5,27.5 Z"/></g>
<g><path style="opacity:1" fill="#979797" d="M 178.5,43.5 C 173.167,43.5 167.833,43.5 162.5,43.5C 162.5,55.8333 162.5,68.1667 162.5,80.5C 161.505,68.011 161.171,55.3443 161.5,42.5C 167.358,42.1778 173.025,42.5111 178.5,43.5 Z"/></g>
<g><path style="opacity:1" fill="#7d7d7d" d="M 331.5,43.5 C 326.167,43.5 320.833,43.5 315.5,43.5C 315.5,55.8333 315.5,68.1667 315.5,80.5C 314.505,68.011 314.171,55.3443 314.5,42.5C 320.358,42.1778 326.025,42.5111 331.5,43.5 Z"/></g>
<g><path style="opacity:1" fill="#9ad945" d="M 109.5,27.5 C 107.379,30.45 104.713,32.95 101.5,35C 89.2295,41.6224 77.8961,49.4557 67.5,58.5C 66.2921,57.7659 64.9587,57.4326 63.5,57.5C 63.2865,55.8561 63.6198,54.3561 64.5,53C 79.6019,44.4554 94.6019,35.9554 109.5,27.5 Z"/></g>
<g><path style="opacity:1" fill="#f99442" d="M 9.5,28.5 C 11.8542,29.0128 13.8542,30.1795 15.5,32C 26.8091,43.6416 38.4758,54.9749 50.5,66C 52.4469,64.2033 54.4469,62.0366 56.5,59.5C 57.865,58.1931 59.1984,58.1931 60.5,59.5C 60.5,64.5 60.5,69.5 60.5,74.5C 57.3492,72.417 54.3492,70.0837 51.5,67.5C 49.4514,68.8818 47.7847,70.5484 46.5,72.5C 34.1962,57.8583 21.8629,43.1916 9.5,28.5 Z"/></g>
<g><path style="opacity:1" fill="#19191a" d="M 325.5,51.5 C 327.857,51.3367 330.19,51.5034 332.5,52C 335.167,54.3333 335.167,56.6667 332.5,59C 330.19,59.4966 327.857,59.6633 325.5,59.5C 325.5,56.8333 325.5,54.1667 325.5,51.5 Z"/></g>
<g><path style="opacity:1" fill="#141415" d="M 172.5,52.5 C 184.131,52.0482 187.631,57.3815 183,68.5C 180.103,71.2309 176.603,72.2309 172.5,71.5C 172.5,65.1667 172.5,58.8333 172.5,52.5 Z"/></g>
<g><path style="opacity:1" fill="#62a744" d="M 77.5,72.5 C 76.0613,70.6397 74.3947,68.973 72.5,67.5C 72.5,67.1667 72.5,66.8333 72.5,66.5C 85.4637,54.7051 98.297,42.7051 111,30.5C 112.812,28.6964 112.646,27.6964 110.5,27.5C 112.216,25.5526 114.383,24.2193 117,23.5C 117.667,24.1667 117.667,24.8333 117,25.5C 103.969,41.3573 90.8021,57.024 77.5,72.5 Z"/></g>
<g><path style="opacity:1" fill="#262627" d="M 371.5,54.5 C 373.123,57.5996 374.457,60.933 375.5,64.5C 373.257,65.4742 370.924,65.8076 368.5,65.5C 368.894,61.6528 369.894,57.9861 371.5,54.5 Z"/></g>
<g><path style="opacity:1" fill="#3db03e" d="M 63.5,57.5 C 64.9587,57.4326 66.2921,57.7659 67.5,58.5C 69.1667,61.1667 70.8333,63.8333 72.5,66.5C 72.5,66.8333 72.5,67.1667 72.5,67.5C 69.5875,70.0121 66.5875,72.3455 63.5,74.5C 63.5,68.8333 63.5,63.1667 63.5,57.5 Z"/></g>
<g><path style="opacity:1" fill="#228e3b" d="M 72.5,67.5 C 74.3947,68.973 76.0613,70.6397 77.5,72.5C 77.5,72.8333 77.5,73.1667 77.5,73.5C 75.7376,74.2623 74.7376,75.5956 74.5,77.5C 71.7052,79.7514 69.3719,82.4181 67.5,85.5C 65.8058,86.5274 64.4725,87.8608 63.5,89.5C 63.5,84.5 63.5,79.5 63.5,74.5C 66.5875,72.3455 69.5875,70.0121 72.5,67.5 Z"/></g>
<g><path style="opacity:1" fill="#e95c3d" d="M 60.5,74.5 C 60.8195,79.3633 60.4861,84.03 59.5,88.5C 58.5,86.8333 57.1667,85.5 55.5,84.5C 54.2003,81.5677 52.2003,79.2344 49.5,77.5C 49.2624,75.5956 48.2624,74.2623 46.5,73.5C 46.5,73.1667 46.5,72.8333 46.5,72.5C 47.7847,70.5484 49.4514,68.8818 51.5,67.5C 54.3492,70.0837 57.3492,72.417 60.5,74.5 Z"/></g>
<g><path style="opacity:1" fill="#727272" d="M 240.5,51.5 C 244.167,51.5 247.833,51.5 251.5,51.5C 251.5,58.5 251.5,65.5 251.5,72.5C 247.833,72.5 244.167,72.5 240.5,72.5C 240.5,75.1667 240.5,77.8333 240.5,80.5C 250.833,80.5 261.167,80.5 271.5,80.5C 271.5,77.8333 271.5,75.1667 271.5,72.5C 267.958,72.8128 264.625,72.4794 261.5,71.5C 265.167,71.5 268.833,71.5 272.5,71.5C 272.5,74.8333 272.5,78.1667 272.5,81.5C 261.5,81.5 250.5,81.5 239.5,81.5C 239.5,78.1667 239.5,74.8333 239.5,71.5C 243.167,71.5 246.833,71.5 250.5,71.5C 250.5,65.1667 250.5,58.8333 250.5,52.5C 246.958,52.8128 243.625,52.4794 240.5,51.5 Z"/></g>
<g><path style="opacity:1" fill="#1ccaf9" d="M 77.5,73.5 C 82.1175,79.9569 86.9508,86.2903 92,92.5C 93.128,94.3453 93.628,96.3453 93.5,98.5C 86.8254,91.8246 80.4921,84.8246 74.5,77.5C 74.7376,75.5956 75.7376,74.2623 77.5,73.5 Z"/></g>
<g><path style="opacity:1" fill="#0d96da" d="M 74.5,77.5 C 80.4921,84.8246 86.8254,91.8246 93.5,98.5C 93.5,99.5 93.5,100.5 93.5,101.5C 85.0804,95.7433 76.4137,90.4099 67.5,85.5C 69.3719,82.4181 71.7052,79.7514 74.5,77.5 Z"/></g>
<g><path style="opacity:1" fill="#9e0ae3" d="M 49.5,77.5 C 52.2003,79.2344 54.2003,81.5677 55.5,84.5C 47.3769,90.4011 39.0436,96.0678 30.5,101.5C 30.5,100.167 30.5,98.8333 30.5,97.5C 37.5361,91.4648 43.8695,84.7982 49.5,77.5 Z"/></g>
<g><path style="opacity:1" fill="#c04cf9" d="M 46.5,73.5 C 48.2624,74.2623 49.2624,75.5956 49.5,77.5C 43.8695,84.7982 37.5361,91.4648 30.5,97.5C 30.4914,95.6916 30.9914,94.0249 32,92.5C 37.0492,86.2903 41.8825,79.9569 46.5,73.5 Z"/></g>
<g><path style="opacity:1" fill="#841e9d" d="M 55.5,84.5 C 57.1667,85.5 58.5,86.8333 59.5,88.5C 60.5981,89.397 60.5981,90.2303 59.5,91C 50.8333,94.6667 42.1667,98.3333 33.5,102C 32.2506,102.74 31.2506,102.573 30.5,101.5C 39.0436,96.0678 47.3769,90.4011 55.5,84.5 Z"/></g>
<g><path style="opacity:1" fill="#0f6dba" d="M 67.5,85.5 C 76.4137,90.4099 85.0804,95.7433 93.5,101.5C 93.44,102.043 93.1067,102.376 92.5,102.5C 82.4462,98.7177 72.7795,94.3844 63.5,89.5C 64.4725,87.8608 65.8058,86.5274 67.5,85.5 Z"/></g>
</svg>
